<?xml version="1.0" encoding="utf-8"?>
<svg viewBox="0 0 300 300" xmlns="http://www.w3.org/2000/svg">
  <g data-v-423bf9ae="" id="e0ce313f-87f5-4d55-95bc-7eca50c45f2e" transform="matrix(3.0394980907440186, 0, 0, 3.0394980907440186, -3.1179599761962926, -4.232851982116699)" stroke="none" fill="#F8EDEBfff">
    <path d="M33.282 88.16c-6.388 0-12.522-2.896-15.635-7.375-6.837-9.847-7-10.217-11.17-19.695-.953-2.165-2.115-4.81-3.616-8.157l-.116-.255.096-.263c.126-.351 12.968-34.979 45.401-40.639.075-.026 3.807-1.128 8.958-1.128 6.524 0 15.626 1.807 21.958 10.397.794.741 8.316 8.191 4.969 21.725l-.11.441-.449.075c-.628.103-1.249.156-1.847.157-8.037 0-10.52-9.354-10.544-9.45-3.169-13.496-9.783-17.139-13.801-18.072 4.715 3.107 8.398 9.475 9.571 15.033 1.063 5.033.119 9.164-2.589 11.331-6.441 5.162-9.407 19.085-9.725 20.655l-.067.342-.317.147c-2.698 1.264-5.621 3.828-8.688 7.622l-.434.536-1.049-.898-.401-.683c.291.643.549 1.269.773 1.883 1.402 3.796 1.575 7.096.512 9.805-1.588 4.049-5.953 6.466-11.68 6.466zM4.24 52.627a1135.71 1135.71 0 0 1 3.505 7.905c4.117 9.362 4.279 9.728 11.039 19.463 2.816 4.056 8.644 6.781 14.498 6.781 5.135 0 9.019-2.089 10.392-5.586.934-2.382.759-5.352-.523-8.822-.729-1.996-1.842-4.172-3.305-6.467C24.101 41.22 29.941 29.6 30.198 29.118l2.223-4.187-.933 4.648c-.026.129-2.366 13.022 13.522 39.963 2.897-3.471 5.697-5.895 8.337-7.214.692-3.291 3.713-15.967 10.146-21.122 2.286-1.834 3.053-5.464 2.102-9.965-1.362-6.449-6.236-14.038-12.036-15.574l-3.066-.813 3.125-.539c.049-.008.492-.081 1.235-.081 3.075 0 13.438 1.403 17.67 19.432.085.328 2.241 8.393 9.198 8.393.382-.001.773-.024 1.172-.072 2.972-12.888-4.636-19.891-4.714-19.96l-.097-.106c-5.99-8.171-14.662-9.887-20.881-9.887-4.937 0-8.605 1.079-8.643 1.091C18.316 18.403 5.472 49.469 4.24 52.627zm26.152-15.469c.219 5.67 2.277 14.657 10.081 27.143-6.653-12.44-9.187-21.402-10.081-27.143zm24.735 3.4c-1.982 0-2.793-.918-2.878-1.021l-.09-.142c-1.144-2.39-.823-5.054-.809-5.167l.026-.205.135-.158c1.231-1.434 3.03-2.192 5.196-2.192 1.533 0 2.712.382 2.76.398l.263.084.129.24c1.421 2.595-.319 6.692-.395 6.865l-.11.257-.258.108c-1.477.619-2.813.933-3.969.933zm-1.767-1.864c.142.117.662.479 1.766.479h.001c.904 0 1.971-.241 3.17-.717.435-1.126 1.114-3.584.471-5.145a8.73 8.73 0 0 0-2.06-.254c-1.69 0-3.036.521-4.002 1.55-.042.605-.095 2.445.654 4.087zm25.994.243c-.696 0-1.445-.126-2.225-.377l-.295-.095-.126-.283c-.04-.088-.983-2.234-.857-4.647l.011-.182.097-.152c.07-.114 1.784-2.771 4.615-2.771.561 0 1.13.107 1.689.319l.268.101.118.258c.089.192 2.128 4.724-.304 6.757-.019.034-.965 1.072-2.991 1.072zm-1.495-1.604c.529.146 1.031.22 1.494.22 1.39 0 2.003-.653 2.028-.68 1.416-1.192.463-4.037.117-4.922a3.31 3.31 0 0 0-.926-.138c-1.744 0-2.995 1.51-3.347 1.985-.037 1.531.418 2.948.634 3.535z"/>
    <path d="M33.371 88.846c-5.755 0-12.67-2.45-16.293-7.667-6.875-9.899-7.038-10.273-11.234-19.811a1056.66 1056.66 0 0 0-3.615-8.151L2 52.705l.19-.526c.127-.352 13.094-35.305 45.862-41.071 1.484-.41 20.658-5.328 31.625 9.479 1.047.998 8.196 8.395 5.314 21.522l8.269 7.23c.775.357 2.933 1.566 4.075 4.409 1.465 3.639.733 8.427-2.174 14.235-.737 1.375-2.947 3.595-6.146 2.424-1.3-.463-2.646-1.485-4.005-3.04-2.282 1.392-7.801 4.297-13.632 3.856-4.863-.379-8.763-2.921-11.6-7.556-.493-.276-2.239-1.006-5.237.392-2.602 1.218-5.441 3.716-8.442 7.429l-.181.229-.549.701c1.208 3.643 1.289 6.847.237 9.53-1.463 3.729-5.133 6.197-10.066 6.774-.694.083-1.423.124-2.169.124zM4.993 52.61c1.389 3.105 2.482 5.59 3.386 7.643 4.171 9.485 4.252 9.668 10.975 19.348 3.469 4.996 10.616 6.992 15.866 6.373 2.283-.268 6.334-1.278 7.81-5.036.871-2.221.693-5.023-.528-8.331-.714-1.949-1.804-4.079-3.24-6.331-15.959-25.019-9.938-36.984-9.675-37.482l4.54-8.547-1.961 9.479c-.024.115-2.214 12.578 12.95 38.628 2.859-3.292 5.627-5.573 8.252-6.801 5.213-2.434 8.202-.025 8.327.078l.184.153.121.205c2.363 3.985 5.589 6.163 9.59 6.476 6.449.474 12.84-4.016 12.903-4.06l1.087-.773.814 1.056c1.621 2.104 2.831 2.854 3.562 3.114 1.688.617 2.591-.812 2.756-1.104 2.455-4.907 3.184-9.024 2.083-11.851-.892-2.286-2.682-2.992-2.757-3.02l-.232-.089-.201-.168-9.697-8.48.203-.819c3.143-12.697-4.089-19.448-4.396-19.73l-.189-.209c-10.173-13.877-28.012-8.768-28.768-8.544l-.157.037C19.499 18.901 6.696 48.358 4.993 52.61z" style="fill: rgb(255, 255, 255);"/>
    <path d="M80.975 73.51c-2.294 0-4.722-.693-6.941-2.708a1.388 1.388 0 0 1-.096-1.957 1.386 1.386 0 0 1 1.957-.093c5.002 4.544 11.812-.066 12.746-.739a1.384 1.384 0 0 1 1.881 2.028 2.47 2.47 0 0 1-.191.168c-.658.479-4.729 3.301-9.356 3.301zM88.569 62.067a3.43 3.43 0 0 1-.946-.141 2.49 2.49 0 0 1-.824.134c-.508 0-1.288-.147-2.12-.861-.919-.785-.762-2.01-.646-2.901.012-.074.021-.163.031-.252-.108.035-.235.08-.383.138-2.333.911-4.15-.178-4.273-2.235-.141-2.328 1.791-5.187 4.587-5.522 1.304-.156 2.698-.31 4.154-.31 6.145 0 7.516 2.974 7.585 5.467.054 1.862-.189 2.931-.812 3.572a1.827 1.827 0 0 1-1.319.567c-1.185 0-2.086-1.116-2.588-2.058-.095.141-.16.307-.123.47.104.46.373 2.018-.476 3.078-.441.551-1.098.854-1.847.854zm-1.787-5.296l1.534.12a3.72 3.72 0 0 1 .567-.99c.667-.841 1.633-1.363 2.517-1.363.638 0 1.189.271 1.541.727-.103-.932-.702-2.38-4.793-2.38-1.303 0-2.604.143-3.823.288-.666.081-1.323.573-1.762 1.317-.305.523-.4 1-.397 1.257.116-.016.278-.054.504-.142 2.057-.808 3.182-.27 3.644.258.245.277.39.587.468.908zM53.947 64.257a1.385 1.385 0 0 1-1.386-1.384c0-.086.017-.242.033-.327.546-2.701 3.598-16.377 10.465-21.879 2.075-1.663 2.752-5.046 1.857-9.283-1.319-6.243-5.995-13.58-11.535-15.047l-6.138-1.624 6.257-1.078c.143-.026 14.504-2.234 19.693 19.872.089.34 2.425 8.99 10.035 7.73a1.385 1.385 0 0 1 .451 2.734c-8.101 1.334-12.16-5.829-13.175-9.804-2.16-9.2-5.905-13.692-9.284-15.865 3.206 3.488 5.507 8.262 6.404 12.512 1.118 5.295.084 9.675-2.836 12.014-6.182 4.954-9.102 18.406-9.467 20.197a1.38 1.38 0 0 1-1.374 1.232zM69.655 82.828H44.318a1.396 1.396 0 0 1-1.398-1.385c0-.765.608-1.385 1.373-1.385H67.63c-1.091-3.506-1.326-8.61 3.147-11.17a1.386 1.386 0 0 1 1.89.513 1.387 1.387 0 0 1-.515 1.89c-4.54 2.6-1.387 9.266-1.251 9.548l.96 1.987-2.206.002z" style="fill: rgb(255, 255, 255);"/>
    <path d="M55.127 41.251c-2.252 0-3.238-1.062-3.413-1.276l-.18-.28c-1.229-2.57-.888-5.431-.871-5.553l.053-.412.271-.315c1.366-1.593 3.346-2.434 5.721-2.434 1.613 0 2.841.388 2.978.432l.52.171.264.481c1.553 2.837-.167 7.007-.367 7.473l-.223.513-.516.214c-1.564.654-2.989.986-4.237.986zm-1.207-3.002c.146.072.522.231 1.206.231h.001c.748 0 1.629-.188 2.627-.558.352-1.01.8-2.791.482-4.021a8.148 8.148 0 0 0-1.528-.153c-1.392 0-2.507.392-3.326 1.161-.025.677.005 2.064.538 3.34zM79.354 39.628c-.77 0-1.59-.138-2.438-.41l-.588-.189-.252-.565c-.044-.095-1.052-2.388-.917-4.965l.02-.362.194-.308c.079-.124 1.993-3.091 5.2-3.091.644 0 1.295.122 1.934.362l.532.201.238.518c.242.526 2.267 5.178-.427 7.523-.343.342-1.47 1.286-3.496 1.286zm-.964-2.877c.341.073.663.109.964.109 1.05 0 1.51-.447 1.528-.467l.132-.127c.75-.626.415-2.486-.023-3.726-1.45-.242-2.624.937-3.073 1.496.007 1.09.273 2.107.472 2.715z" style="fill: rgb(255, 255, 255);"/>
    <path d="M57.424 38.114s-.595-.23-.778-1.146c-.185-.917-.255-.942-.32-1.604-.067-.663-.051-1.853.755-2.095.804-.243 2.305 1.414 2.305 2.735 0 .484-.13.928-.372 1.282a1.894 1.894 0 0 1-1.59.828zM80.701 36.384s-.504-.194-.658-.969c-.156-.775-.216-.796-.272-1.357-.057-.559-.043-1.564.638-1.77.679-.206 1.948 1.196 1.948 2.314 0 .407-.108.78-.314 1.081a1.599 1.599 0 0 1-1.342.701z" style="fill: rgb(255, 255, 255);"/>
  </g>
</svg>