<?xml version="1.0" encoding="utf-8"?>
<svg viewBox="0 0 799 90" xmlns="http://www.w3.org/2000/svg">
  <g data-v-423bf9ae="" id="197a49db-ece9-41ca-bd01-ca1cae2c703b" fill="#F8EDEBfff" transform="matrix(4.64396333694458, 0, 0, 4.64396333694458, 124.73672485351561, -1.9040272235870361)">
    <path d="M2.73 13.75L1.06 13.75L1.06 3.95L4.52 3.95L4.52 3.95Q6.22 3.95 7.01 4.83L7.01 4.83L7.01 4.83Q7.80 5.71 7.80 6.99L7.80 6.99L7.80 6.99Q7.80 8.19 6.97 9.11L6.97 9.11L6.97 9.11Q6.15 10.02 4.52 10.02L4.52 10.02L2.73 10.02L2.73 13.75ZM2.73 5.52L2.73 8.46L4.61 8.46L4.61 8.46Q5.36 8.46 5.73 8.02L5.73 8.02L5.73 8.02Q6.10 7.59 6.10 6.99L6.10 6.99L6.10 6.99Q6.10 6.41 5.75 5.96L5.75 5.96L5.75 5.96Q5.39 5.52 4.61 5.52L4.61 5.52L2.73 5.52ZM12.46 13.92L12.46 13.92L12.46 13.92Q11.27 13.92 10.54 13.21L10.54 13.21L10.54 13.21Q9.80 12.50 9.80 10.95L9.80 10.95L9.80 6.59L11.41 6.59L11.41 10.60L11.41 10.60Q11.41 12.38 12.88 12.38L12.88 12.38L12.88 12.38Q14.46 12.38 14.46 10.63L14.46 10.63L14.46 6.59L16.07 6.59L16.07 13.75L14.46 13.75L14.46 13.06L14.46 13.06Q13.78 13.92 12.46 13.92ZM23.42 6.43L23.42 6.43L23.42 6.43Q24.39 6.43 25.10 6.80L25.10 6.80L25.10 9.45L23.53 9.45L23.53 7.92L23.39 7.92L23.39 7.92Q22.29 7.92 21.69 8.44L21.69 8.44L21.69 8.44Q21.08 8.96 21.08 10.00L21.08 10.00L21.08 12.33L23.09 12.33L23.09 13.75L17.96 13.75L17.96 12.33L19.47 12.33L19.47 8.01L17.96 8.01L17.96 6.59L20.97 6.59L20.97 7.74L20.97 7.74Q21.27 7.13 21.94 6.78L21.94 6.78L21.94 6.78Q22.61 6.43 23.42 6.43ZM33.45 9.81L33.45 9.81L33.45 9.81Q33.45 10.43 33.39 10.79L33.39 10.79L28.52 10.79L28.52 10.79Q28.67 11.58 29.14 12.03L29.14 12.03L29.14 12.03Q29.61 12.49 30.35 12.49L30.35 12.49L30.35 12.49Q31.29 12.49 31.93 11.79L31.93 11.79L32.90 12.81L32.90 12.81Q31.89 13.92 30.34 13.92L30.34 13.92L30.34 13.92Q28.76 13.92 27.84 12.89L27.84 12.89L27.84 12.89Q26.92 11.87 26.92 10.16L26.92 10.16L26.92 10.16Q26.92 8.43 27.85 7.43L27.85 7.43L27.85 7.43Q28.77 6.43 30.34 6.43L30.34 6.43L30.34 6.43Q31.71 6.43 32.58 7.29L32.58 7.29L32.58 7.29Q33.45 8.15 33.45 9.81ZM28.50 9.42L28.50 9.42L31.86 9.42L31.86 9.42Q31.79 8.64 31.37 8.24L31.37 8.24L31.37 8.24Q30.94 7.84 30.34 7.84L30.34 7.84L30.34 7.84Q29.57 7.84 29.10 8.26L29.10 8.26L29.10 8.26Q28.63 8.68 28.50 9.42ZM42.10 10.37L35.52 10.37L35.52 8.82L42.10 8.82L42.10 10.37ZM45.85 13.75L44.18 13.75L44.18 3.95L47.64 3.95L47.64 3.95Q49.34 3.95 50.13 4.83L50.13 4.83L50.13 4.83Q50.92 5.71 50.92 6.99L50.92 6.99L50.92 6.99Q50.92 8.19 50.09 9.11L50.09 9.11L50.09 9.11Q49.27 10.02 47.64 10.02L47.64 10.02L45.85 10.02L45.85 13.75ZM45.85 5.52L45.85 8.46L47.73 8.46L47.73 8.46Q48.48 8.46 48.85 8.02L48.85 8.02L48.85 8.02Q49.22 7.59 49.22 6.99L49.22 6.99L49.22 6.99Q49.22 6.41 48.87 5.96L48.87 5.96L48.87 5.96Q48.51 5.52 47.73 5.52L47.73 5.52L45.85 5.52ZM55.58 13.92L55.58 13.92L55.58 13.92Q54.39 13.92 53.66 13.21L53.66 13.21L53.66 13.21Q52.92 12.50 52.92 10.95L52.92 10.95L52.92 6.59L54.53 6.59L54.53 10.60L54.53 10.60Q54.53 12.38 56.00 12.38L56.00 12.38L56.00 12.38Q57.58 12.38 57.58 10.63L57.58 10.63L57.58 6.59L59.19 6.59L59.19 13.75L57.58 13.75L57.58 13.06L57.58 13.06Q56.90 13.92 55.58 13.92ZM63.21 15.82L61.60 16.56L61.60 6.59L63.21 6.59L63.21 7.14L63.21 7.14Q63.87 6.43 64.96 6.43L64.96 6.43L64.96 6.43Q66.40 6.43 67.25 7.42L67.25 7.42L67.25 7.42Q68.10 8.41 68.10 10.18L68.10 10.18L68.10 10.18Q68.10 11.90 67.22 12.91L67.22 12.91L67.22 12.91Q66.35 13.92 64.97 13.92L64.97 13.92L64.97 13.92Q63.85 13.92 63.21 13.17L63.21 13.17L63.21 15.82ZM64.74 12.38L64.74 12.38L64.74 12.38Q65.56 12.38 66.02 11.81L66.02 11.81L66.02 11.81Q66.47 11.24 66.47 10.18L66.47 10.18L66.47 10.18Q66.47 9.16 66.02 8.55L66.02 8.55L66.02 8.55Q65.56 7.95 64.72 7.95L64.72 7.95L64.72 7.95Q63.71 7.95 63.21 8.67L63.21 8.67L63.21 11.66L63.21 11.66Q63.71 12.38 64.74 12.38ZM80.35 13.75L78.68 13.75L78.68 3.95L82.14 3.95L82.14 3.95Q83.83 3.95 84.62 4.83L84.62 4.83L84.62 4.83Q85.41 5.71 85.41 6.99L85.41 6.99L85.41 6.99Q85.41 8.19 84.59 9.11L84.59 9.11L84.59 9.11Q83.76 10.02 82.14 10.02L82.14 10.02L80.35 10.02L80.35 13.75ZM80.35 5.52L80.35 8.46L82.22 8.46L82.22 8.46Q82.98 8.46 83.35 8.02L83.35 8.02L83.35 8.02Q83.72 7.59 83.72 6.99L83.72 6.99L83.72 6.99Q83.72 6.41 83.36 5.96L83.36 5.96L83.36 5.96Q83.01 5.52 82.22 5.52L82.22 5.52L80.35 5.52ZM90.01 13.92L90.01 13.92L90.01 13.92Q88.83 13.92 88.09 13.30L88.09 13.30L88.09 13.30Q87.36 12.68 87.36 11.54L87.36 11.54L87.36 11.54Q87.36 10.37 88.20 9.77L88.20 9.77L88.20 9.77Q89.04 9.17 90.22 9.17L90.22 9.17L90.22 9.17Q91.24 9.17 91.99 9.55L91.99 9.55L91.99 9.13L91.99 9.13Q91.99 7.84 90.58 7.84L90.58 7.84L90.58 7.84Q89.40 7.84 88.31 8.57L88.31 8.57L87.82 7.25L87.82 7.25Q89.12 6.43 90.72 6.43L90.72 6.43L90.72 6.43Q93.56 6.43 93.56 9.11L93.56 9.11L93.56 13.75L91.99 13.75L91.99 13.19L91.99 13.19Q91.24 13.92 90.01 13.92ZM90.30 12.50L90.30 12.50L90.30 12.50Q91.31 12.50 91.99 11.79L91.99 11.79L91.99 10.86L91.99 10.86Q91.35 10.54 90.47 10.54L90.47 10.54L90.47 10.54Q89.80 10.54 89.35 10.79L89.35 10.79L89.35 10.79Q88.91 11.05 88.91 11.54L88.91 11.54L88.91 11.54Q88.91 11.97 89.28 12.24L89.28 12.24L89.28 12.24Q89.64 12.50 90.30 12.50ZM99.22 13.92L99.22 13.92L99.22 13.92Q98.31 13.92 97.54 13.57L97.54 13.57L97.54 13.57Q96.77 13.23 96.31 12.64L96.31 12.64L97.36 11.69L97.36 11.69Q98.24 12.54 99.30 12.54L99.30 12.54L99.30 12.54Q99.82 12.54 100.16 12.36L100.16 12.36L100.16 12.36Q100.49 12.18 100.49 11.82L100.49 11.82L100.49 11.82Q100.49 11.61 100.29 11.42L100.29 11.42L100.29 11.42Q100.09 11.23 99.82 11.10L99.82 11.10L99.82 11.10Q99.55 10.98 99.04 10.77L99.04 10.77L99.04 10.77Q98.98 10.74 98.94 10.72L98.94 10.72L98.94 10.72Q98.91 10.71 98.85 10.69L98.85 10.69L98.85 10.69Q98.80 10.67 98.76 10.65L98.76 10.65L98.76 10.65Q98.24 10.43 97.99 10.31L97.99 10.31L97.99 10.31Q97.73 10.19 97.38 9.98L97.38 9.98L97.38 9.98Q97.02 9.76 96.86 9.56L96.86 9.56L96.86 9.56Q96.70 9.37 96.57 9.07L96.57 9.07L96.57 9.07Q96.45 8.76 96.45 8.39L96.45 8.39L96.45 8.39Q96.45 7.48 97.23 6.95L97.23 6.95L97.23 6.95Q98.01 6.43 99.20 6.43L99.20 6.43L99.20 6.43Q100.87 6.43 101.88 7.56L101.88 7.56L100.80 8.44L100.80 8.44Q100.03 7.80 99.15 7.80L99.15 7.80L99.15 7.80Q98.60 7.80 98.27 7.96L98.27 7.96L98.27 7.96Q97.94 8.12 97.94 8.41L97.94 8.41L97.94 8.41Q97.94 8.55 98.06 8.69L98.06 8.69L98.06 8.69Q98.17 8.82 98.45 8.97L98.45 8.97L98.45 8.97Q98.73 9.11 98.91 9.19L98.91 9.19L98.91 9.19Q99.09 9.27 99.53 9.44L99.53 9.44L99.53 9.44Q100.81 9.95 101.23 10.28L101.23 10.28L101.23 10.28Q101.98 10.86 101.99 11.80L101.99 11.80L101.99 11.80Q101.99 12.80 101.24 13.36L101.24 13.36L101.24 13.36Q100.49 13.92 99.22 13.92ZM108.46 13.92L108.46 13.92L108.46 13.92Q106.36 13.92 106.36 11.97L106.36 11.97L106.36 8.01L104.86 8.01L104.86 6.59L106.36 6.59L106.36 4.41L107.97 3.64L107.97 6.59L110.40 6.59L110.40 8.01L107.97 8.01L107.97 11.66L107.97 11.66Q107.97 12.49 108.98 12.49L108.98 12.49L108.98 12.49Q109.56 12.49 110.21 12.15L110.21 12.15L110.01 13.59L110.01 13.59Q109.40 13.92 108.46 13.92ZM118.29 6.43L118.29 6.43L118.29 6.43Q119.25 6.43 119.97 6.80L119.97 6.80L119.97 9.45L118.40 9.45L118.40 7.92L118.26 7.92L118.26 7.92Q117.15 7.92 116.55 8.44L116.55 8.44L116.55 8.44Q115.95 8.96 115.95 10.00L115.95 10.00L115.95 12.33L117.95 12.33L117.95 13.75L112.83 13.75L112.83 12.33L114.34 12.33L114.34 8.01L112.83 8.01L112.83 6.59L115.84 6.59L115.84 7.74L115.84 7.74Q116.13 7.13 116.80 6.78L116.80 6.78L116.80 6.78Q117.47 6.43 118.29 6.43ZM125.10 5.60L125.10 5.60L125.10 5.60Q124.71 5.60 124.43 5.32L124.43 5.32L124.43 5.32Q124.15 5.04 124.15 4.63L124.15 4.63L124.15 4.63Q124.15 4.23 124.43 3.96L124.43 3.96L124.43 3.96Q124.71 3.68 125.10 3.68L125.10 3.68L125.10 3.68Q125.51 3.68 125.79 3.96L125.79 3.96L125.79 3.96Q126.07 4.23 126.07 4.63L126.07 4.63L126.07 4.63Q126.07 5.04 125.79 5.32L125.79 5.32L125.79 5.32Q125.51 5.60 125.10 5.60ZM125.92 6.59L125.92 12.33L127.89 12.33L127.89 13.75L122.33 13.75L122.33 12.33L124.31 12.33L124.31 8.01L122.33 8.01L122.33 6.59L125.92 6.59ZM136.93 9.81L136.93 9.81L136.93 9.81Q136.93 10.43 136.88 10.79L136.88 10.79L132.01 10.79L132.01 10.79Q132.16 11.58 132.63 12.03L132.63 12.03L132.63 12.03Q133.10 12.49 133.84 12.49L133.84 12.49L133.84 12.49Q134.78 12.49 135.42 11.79L135.42 11.79L136.39 12.81L136.39 12.81Q135.38 13.92 133.83 13.92L133.83 13.92L133.83 13.92Q132.24 13.92 131.33 12.89L131.33 12.89L131.33 12.89Q130.41 11.87 130.41 10.16L130.41 10.16L130.41 10.16Q130.41 8.43 131.33 7.43L131.33 7.43L131.33 7.43Q132.26 6.43 133.83 6.43L133.83 6.43L133.83 6.43Q135.20 6.43 136.07 7.29L136.07 7.29L136.07 7.29Q136.93 8.15 136.93 9.81ZM131.99 9.42L131.99 9.42L135.35 9.42L135.35 9.42Q135.28 8.64 134.85 8.24L134.85 8.24L134.85 8.24Q134.43 7.84 133.83 7.84L133.83 7.84L133.83 7.84Q133.06 7.84 132.59 8.26L132.59 8.26L132.59 8.26Q132.12 8.68 131.99 9.42ZM142.34 13.92L142.34 13.92L142.34 13.92Q141.43 13.92 140.66 13.57L140.66 13.57L140.66 13.57Q139.89 13.23 139.43 12.64L139.43 12.64L140.48 11.69L140.48 11.69Q141.36 12.54 142.42 12.54L142.42 12.54L142.42 12.54Q142.94 12.54 143.28 12.36L143.28 12.36L143.28 12.36Q143.61 12.18 143.61 11.82L143.61 11.82L143.61 11.82Q143.61 11.61 143.41 11.42L143.41 11.42L143.41 11.42Q143.21 11.23 142.94 11.10L142.94 11.10L142.94 11.10Q142.67 10.98 142.16 10.77L142.16 10.77L142.16 10.77Q142.10 10.74 142.06 10.72L142.06 10.72L142.06 10.72Q142.03 10.71 141.97 10.69L141.97 10.69L141.97 10.69Q141.92 10.67 141.88 10.65L141.88 10.65L141.88 10.65Q141.36 10.43 141.11 10.31L141.11 10.31L141.11 10.31Q140.85 10.19 140.50 9.98L140.50 9.98L140.50 9.98Q140.14 9.76 139.98 9.56L139.98 9.56L139.98 9.56Q139.82 9.37 139.69 9.07L139.69 9.07L139.69 9.07Q139.57 8.76 139.57 8.39L139.57 8.39L139.57 8.39Q139.57 7.48 140.35 6.95L140.35 6.95L140.35 6.95Q141.13 6.43 142.32 6.43L142.32 6.43L142.32 6.43Q143.99 6.43 145.00 7.56L145.00 7.56L143.92 8.44L143.92 8.44Q143.15 7.80 142.27 7.80L142.27 7.80L142.27 7.80Q141.72 7.80 141.39 7.96L141.39 7.96L141.39 7.96Q141.06 8.12 141.06 8.41L141.06 8.41L141.06 8.41Q141.06 8.55 141.18 8.69L141.18 8.69L141.18 8.69Q141.29 8.82 141.57 8.97L141.57 8.97L141.57 8.97Q141.85 9.11 142.03 9.19L142.03 9.19L142.03 9.19Q142.21 9.27 142.65 9.44L142.65 9.44L142.65 9.44Q143.93 9.95 144.35 10.28L144.35 10.28L144.35 10.28Q145.10 10.86 145.11 11.80L145.11 11.80L145.11 11.80Q145.11 12.80 144.36 13.36L144.36 13.36L144.36 13.36Q143.61 13.92 142.34 13.92Z" style="fill: rgb(255, 255, 255);"/>
  </g>
  <g data-v-423bf9ae="" id="fb28855a-73f9-44be-b43e-7cbb341bf25b" transform="matrix(1.1414704322814941, 0, 0, 1.1414704322814941, -2.1126062870025635, -11.414752960205078)" stroke="none" fill="#F8EDEBfff">
    <path d="M33.282 88.16c-6.388 0-12.522-2.896-15.635-7.375-6.837-9.847-7-10.217-11.17-19.695-.953-2.165-2.115-4.81-3.616-8.157l-.116-.255.096-.263c.126-.351 12.968-34.979 45.401-40.639.075-.026 3.807-1.128 8.958-1.128 6.524 0 15.626 1.807 21.958 10.397.794.741 8.316 8.191 4.969 21.725l-.11.441-.449.075c-.628.103-1.249.156-1.847.157-8.037 0-10.52-9.354-10.544-9.45-3.169-13.496-9.783-17.139-13.801-18.072 4.715 3.107 8.398 9.475 9.571 15.033 1.063 5.033.119 9.164-2.589 11.331-6.441 5.162-9.407 19.085-9.725 20.655l-.067.342-.317.147c-2.698 1.264-5.621 3.828-8.688 7.622l-.434.536-1.049-.898-.401-.683c.291.643.549 1.269.773 1.883 1.402 3.796 1.575 7.096.512 9.805-1.588 4.049-5.953 6.466-11.68 6.466zM4.24 52.627a1135.71 1135.71 0 0 1 3.505 7.905c4.117 9.362 4.279 9.728 11.039 19.463 2.816 4.056 8.644 6.781 14.498 6.781 5.135 0 9.019-2.089 10.392-5.586.934-2.382.759-5.352-.523-8.822-.729-1.996-1.842-4.172-3.305-6.467C24.101 41.22 29.941 29.6 30.198 29.118l2.223-4.187-.933 4.648c-.026.129-2.366 13.022 13.522 39.963 2.897-3.471 5.697-5.895 8.337-7.214.692-3.291 3.713-15.967 10.146-21.122 2.286-1.834 3.053-5.464 2.102-9.965-1.362-6.449-6.236-14.038-12.036-15.574l-3.066-.813 3.125-.539c.049-.008.492-.081 1.235-.081 3.075 0 13.438 1.403 17.67 19.432.085.328 2.241 8.393 9.198 8.393.382-.001.773-.024 1.172-.072 2.972-12.888-4.636-19.891-4.714-19.96l-.097-.106c-5.99-8.171-14.662-9.887-20.881-9.887-4.937 0-8.605 1.079-8.643 1.091C18.316 18.403 5.472 49.469 4.24 52.627zm26.152-15.469c.219 5.67 2.277 14.657 10.081 27.143-6.653-12.44-9.187-21.402-10.081-27.143zm24.735 3.4c-1.982 0-2.793-.918-2.878-1.021l-.09-.142c-1.144-2.39-.823-5.054-.809-5.167l.026-.205.135-.158c1.231-1.434 3.03-2.192 5.196-2.192 1.533 0 2.712.382 2.76.398l.263.084.129.24c1.421 2.595-.319 6.692-.395 6.865l-.11.257-.258.108c-1.477.619-2.813.933-3.969.933zm-1.767-1.864c.142.117.662.479 1.766.479h.001c.904 0 1.971-.241 3.17-.717.435-1.126 1.114-3.584.471-5.145a8.73 8.73 0 0 0-2.06-.254c-1.69 0-3.036.521-4.002 1.55-.042.605-.095 2.445.654 4.087zm25.994.243c-.696 0-1.445-.126-2.225-.377l-.295-.095-.126-.283c-.04-.088-.983-2.234-.857-4.647l.011-.182.097-.152c.07-.114 1.784-2.771 4.615-2.771.561 0 1.13.107 1.689.319l.268.101.118.258c.089.192 2.128 4.724-.304 6.757-.019.034-.965 1.072-2.991 1.072zm-1.495-1.604c.529.146 1.031.22 1.494.22 1.39 0 2.003-.653 2.028-.68 1.416-1.192.463-4.037.117-4.922a3.31 3.31 0 0 0-.926-.138c-1.744 0-2.995 1.51-3.347 1.985-.037 1.531.418 2.948.634 3.535z" style="fill: rgb(255, 255, 255);"/>
    <path d="M33.371 88.846c-5.755 0-12.67-2.45-16.293-7.667-6.875-9.899-7.038-10.273-11.234-19.811a1056.66 1056.66 0 0 0-3.615-8.151L2 52.705l.19-.526c.127-.352 13.094-35.305 45.862-41.071 1.484-.41 20.658-5.328 31.625 9.479 1.047.998 8.196 8.395 5.314 21.522l8.269 7.23c.775.357 2.933 1.566 4.075 4.409 1.465 3.639.733 8.427-2.174 14.235-.737 1.375-2.947 3.595-6.146 2.424-1.3-.463-2.646-1.485-4.005-3.04-2.282 1.392-7.801 4.297-13.632 3.856-4.863-.379-8.763-2.921-11.6-7.556-.493-.276-2.239-1.006-5.237.392-2.602 1.218-5.441 3.716-8.442 7.429l-.181.229-.549.701c1.208 3.643 1.289 6.847.237 9.53-1.463 3.729-5.133 6.197-10.066 6.774-.694.083-1.423.124-2.169.124zM4.993 52.61c1.389 3.105 2.482 5.59 3.386 7.643 4.171 9.485 4.252 9.668 10.975 19.348 3.469 4.996 10.616 6.992 15.866 6.373 2.283-.268 6.334-1.278 7.81-5.036.871-2.221.693-5.023-.528-8.331-.714-1.949-1.804-4.079-3.24-6.331-15.959-25.019-9.938-36.984-9.675-37.482l4.54-8.547-1.961 9.479c-.024.115-2.214 12.578 12.95 38.628 2.859-3.292 5.627-5.573 8.252-6.801 5.213-2.434 8.202-.025 8.327.078l.184.153.121.205c2.363 3.985 5.589 6.163 9.59 6.476 6.449.474 12.84-4.016 12.903-4.06l1.087-.773.814 1.056c1.621 2.104 2.831 2.854 3.562 3.114 1.688.617 2.591-.812 2.756-1.104 2.455-4.907 3.184-9.024 2.083-11.851-.892-2.286-2.682-2.992-2.757-3.02l-.232-.089-.201-.168-9.697-8.48.203-.819c3.143-12.697-4.089-19.448-4.396-19.73l-.189-.209c-10.173-13.877-28.012-8.768-28.768-8.544l-.157.037C19.499 18.901 6.696 48.358 4.993 52.61z" style="fill: rgb(255, 255, 255);"/>
    <path d="M80.975 73.51c-2.294 0-4.722-.693-6.941-2.708a1.388 1.388 0 0 1-.096-1.957 1.386 1.386 0 0 1 1.957-.093c5.002 4.544 11.812-.066 12.746-.739a1.384 1.384 0 0 1 1.881 2.028 2.47 2.47 0 0 1-.191.168c-.658.479-4.729 3.301-9.356 3.301zM88.569 62.067a3.43 3.43 0 0 1-.946-.141 2.49 2.49 0 0 1-.824.134c-.508 0-1.288-.147-2.12-.861-.919-.785-.762-2.01-.646-2.901.012-.074.021-.163.031-.252-.108.035-.235.08-.383.138-2.333.911-4.15-.178-4.273-2.235-.141-2.328 1.791-5.187 4.587-5.522 1.304-.156 2.698-.31 4.154-.31 6.145 0 7.516 2.974 7.585 5.467.054 1.862-.189 2.931-.812 3.572a1.827 1.827 0 0 1-1.319.567c-1.185 0-2.086-1.116-2.588-2.058-.095.141-.16.307-.123.47.104.46.373 2.018-.476 3.078-.441.551-1.098.854-1.847.854zm-1.787-5.296l1.534.12a3.72 3.72 0 0 1 .567-.99c.667-.841 1.633-1.363 2.517-1.363.638 0 1.189.271 1.541.727-.103-.932-.702-2.38-4.793-2.38-1.303 0-2.604.143-3.823.288-.666.081-1.323.573-1.762 1.317-.305.523-.4 1-.397 1.257.116-.016.278-.054.504-.142 2.057-.808 3.182-.27 3.644.258.245.277.39.587.468.908zM53.947 64.257a1.385 1.385 0 0 1-1.386-1.384c0-.086.017-.242.033-.327.546-2.701 3.598-16.377 10.465-21.879 2.075-1.663 2.752-5.046 1.857-9.283-1.319-6.243-5.995-13.58-11.535-15.047l-6.138-1.624 6.257-1.078c.143-.026 14.504-2.234 19.693 19.872.089.34 2.425 8.99 10.035 7.73a1.385 1.385 0 0 1 .451 2.734c-8.101 1.334-12.16-5.829-13.175-9.804-2.16-9.2-5.905-13.692-9.284-15.865 3.206 3.488 5.507 8.262 6.404 12.512 1.118 5.295.084 9.675-2.836 12.014-6.182 4.954-9.102 18.406-9.467 20.197a1.38 1.38 0 0 1-1.374 1.232zM69.655 82.828H44.318a1.396 1.396 0 0 1-1.398-1.385c0-.765.608-1.385 1.373-1.385H67.63c-1.091-3.506-1.326-8.61 3.147-11.17a1.386 1.386 0 0 1 1.89.513 1.387 1.387 0 0 1-.515 1.89c-4.54 2.6-1.387 9.266-1.251 9.548l.96 1.987-2.206.002z" style="fill: rgb(255, 255, 255);"/>
    <path d="M55.127 41.251c-2.252 0-3.238-1.062-3.413-1.276l-.18-.28c-1.229-2.57-.888-5.431-.871-5.553l.053-.412.271-.315c1.366-1.593 3.346-2.434 5.721-2.434 1.613 0 2.841.388 2.978.432l.52.171.264.481c1.553 2.837-.167 7.007-.367 7.473l-.223.513-.516.214c-1.564.654-2.989.986-4.237.986zm-1.207-3.002c.146.072.522.231 1.206.231h.001c.748 0 1.629-.188 2.627-.558.352-1.01.8-2.791.482-4.021a8.148 8.148 0 0 0-1.528-.153c-1.392 0-2.507.392-3.326 1.161-.025.677.005 2.064.538 3.34zM79.354 39.628c-.77 0-1.59-.138-2.438-.41l-.588-.189-.252-.565c-.044-.095-1.052-2.388-.917-4.965l.02-.362.194-.308c.079-.124 1.993-3.091 5.2-3.091.644 0 1.295.122 1.934.362l.532.201.238.518c.242.526 2.267 5.178-.427 7.523-.343.342-1.47 1.286-3.496 1.286zm-.964-2.877c.341.073.663.109.964.109 1.05 0 1.51-.447 1.528-.467l.132-.127c.75-.626.415-2.486-.023-3.726-1.45-.242-2.624.937-3.073 1.496.007 1.09.273 2.107.472 2.715z" style="fill: rgb(255, 255, 255);"/>
    <path d="M57.424 38.114s-.595-.23-.778-1.146c-.185-.917-.255-.942-.32-1.604-.067-.663-.051-1.853.755-2.095.804-.243 2.305 1.414 2.305 2.735 0 .484-.13.928-.372 1.282a1.894 1.894 0 0 1-1.59.828zM80.701 36.384s-.504-.194-.658-.969c-.156-.775-.216-.796-.272-1.357-.057-.559-.043-1.564.638-1.77.679-.206 1.948 1.196 1.948 2.314 0 .407-.108.78-.314 1.081a1.599 1.599 0 0 1-1.342.701z" style="fill: rgb(255, 255, 255);"/>
  </g>
</svg>